<svg width="30" height="30" viewBox="0 0 30 30" fill="none" xmlns="http://www.w3.org/2000/svg">
<path fill-rule="evenodd" clip-rule="evenodd" d="M5 8.5241V22.0324C6.31709 21.528 7.80961 21.25 9.375 21.25C10.9404 21.25 12.4329 21.528 13.75 22.0324V8.5241C12.5756 7.89571 11.0601 7.5 9.375 7.5C7.68989 7.5 6.17437 7.89571 5 8.5241ZM16.25 8.5241V22.0324C17.5671 21.528 19.0596 21.25 20.625 21.25C22.1904 21.25 23.6829 21.528 25 22.0324V8.5241C23.8256 7.89571 22.3101 7.5 20.625 7.5C18.9399 7.5 17.4244 7.89571 16.25 8.5241ZM15 6.35787C13.4159 5.49318 11.4601 5 9.375 5C6.9749 5 4.74612 5.65346 3.05828 6.77481C2.70958 7.00648 2.5 7.39733 2.5 7.81598V24.066C2.5 24.5266 2.75334 24.9499 3.1593 25.1676C3.56526 25.3853 4.05804 25.362 4.44172 25.1071C5.67362 24.2887 7.40887 23.75 9.375 23.75C11.3411 23.75 13.0764 24.2887 14.3083 25.1071C14.7274 25.3856 15.2726 25.3856 15.6917 25.1071C16.9236 24.2887 18.6589 23.75 20.625 23.75C22.5911 23.75 24.3264 24.2887 25.5583 25.1071C25.942 25.362 26.4347 25.3853 26.8407 25.1676C27.2467 24.9499 27.5 24.5266 27.5 24.066V7.81598C27.5 7.39733 27.2904 7.00648 26.9417 6.77481C25.2539 5.65346 23.0251 5 20.625 5C18.5399 5 16.5841 5.49318 15 6.35787Z" fill="#687782"/>
</svg>
