<svg width="40" height="40" viewBox="0 0 40 40" fill="none" xmlns="http://www.w3.org/2000/svg">
<path fill-rule="evenodd" clip-rule="evenodd" d="M20 3.33331C20.9205 3.33331 21.6667 4.07951 21.6667 4.99998V6.66665C21.6667 7.58712 20.9205 8.33331 20 8.33331C19.0795 8.33331 18.3333 7.58712 18.3333 6.66665V4.99998C18.3333 4.07951 19.0795 3.33331 20 3.33331ZM8.2149 8.21487C8.86577 7.56399 9.92105 7.56399 10.5719 8.21487L11.7504 9.39338C12.4013 10.0443 12.4013 11.0995 11.7504 11.7504C11.0996 12.4013 10.0443 12.4013 9.39341 11.7504L8.2149 10.5719C7.56402 9.92101 7.56402 8.86574 8.2149 8.21487ZM31.7851 8.21487C32.436 8.86574 32.436 9.92102 31.7851 10.5719L30.6066 11.7504C29.9557 12.4013 28.9005 12.4013 28.2496 11.7504C27.5987 11.0995 27.5987 10.0443 28.2496 9.39338L29.4281 8.21487C30.079 7.56399 31.1343 7.56399 31.7851 8.21487ZM15.286 15.286C12.6825 17.8895 12.6825 22.1106 15.286 24.7141L16.1978 25.6259C16.5195 25.9476 16.8081 26.2963 17.0612 26.6666H22.9388C23.192 26.2963 23.4805 25.9476 23.8022 25.6259L24.7141 24.7141C27.3176 22.1106 27.3176 17.8895 24.7141 15.286C22.1106 12.6825 17.8895 12.6825 15.286 15.286ZM25.4081 29.0312C25.5977 28.6466 25.8503 28.2918 26.1593 27.9829L27.0711 27.0711C30.9763 23.1658 30.9763 16.8342 27.0711 12.929C23.1658 9.02371 16.8342 9.02371 12.9289 12.929C9.0237 16.8342 9.0237 23.1658 12.9289 27.0711L13.8408 27.9829C14.1497 28.2918 14.4023 28.6466 14.5919 29.0312C14.6002 29.0492 14.6089 29.0671 14.6178 29.0848C14.8671 29.6101 15 30.189 15 30.7816V31.6666C15 34.4281 17.2386 36.6667 20 36.6666C22.7614 36.6667 25 34.4281 25 31.6666V30.7816C25 30.189 25.1329 29.6101 25.3822 29.0848C25.3911 29.0671 25.3998 29.0492 25.4081 29.0312ZM21.7087 30H18.2914C18.3192 30.2584 18.3333 30.5192 18.3333 30.7816V31.6666C18.3333 32.5871 19.0795 33.3333 20 33.3333C20.9205 33.3333 21.6667 32.5871 21.6667 31.6666V30.7816C21.6667 30.5192 21.6808 30.2584 21.7087 30ZM3.33344 19.9999C3.33344 19.0794 4.07963 18.3332 5.0001 18.3332H6.66677C7.58724 18.3332 8.33344 19.0794 8.33344 19.9999C8.33344 20.9204 7.58724 21.6666 6.66677 21.6666H5.0001C4.07963 21.6666 3.33344 20.9204 3.33344 19.9999ZM31.6668 19.9999C31.6668 19.0794 32.413 18.3332 33.3334 18.3332H35.0001C35.9206 18.3332 36.6668 19.0794 36.6668 19.9999C36.6668 20.9204 35.9206 21.6666 35.0001 21.6666H33.3334C32.413 21.6666 31.6668 20.9204 31.6668 19.9999Z" fill="#687782"/>
</svg>
