<svg width="26" height="25" viewBox="0 0 26 25" fill="none" xmlns="http://www.w3.org/2000/svg">
<path fill-rule="evenodd" clip-rule="evenodd" d="M0.5 2C0.5 1.30964 1.05964 0.75 1.75 0.75H24.25C24.9404 0.75 25.5 1.30964 25.5 2C25.5 2.69036 24.9404 3.25 24.25 3.25V17C24.25 18.3807 23.1307 19.5 21.75 19.5H16.0178L18.8839 22.3661C19.372 22.8543 19.372 23.6457 18.8839 24.1339C18.3957 24.622 17.6043 24.622 17.1161 24.1339L13 20.0178L8.88388 24.1339C8.39573 24.622 7.60427 24.622 7.11612 24.1339C6.62796 23.6457 6.62796 22.8543 7.11612 22.3661L9.98223 19.5H4.25C2.86929 19.5 1.75 18.3807 1.75 17V3.25C1.05964 3.25 0.5 2.69036 0.5 2ZM4.25 3.25V17H12.9991C12.9997 17 13.0003 17 13.0009 17H21.75V3.25H4.25ZM20.1339 6.11612C20.622 6.60427 20.622 7.39573 20.1339 7.88388L15.1339 12.8839C14.6457 13.372 13.8543 13.372 13.3661 12.8839L10.5 10.0178L7.63388 12.8839C7.14573 13.372 6.35427 13.372 5.86612 12.8839C5.37796 12.3957 5.37796 11.6043 5.86612 11.1161L9.61612 7.36612C10.1043 6.87796 10.8957 6.87796 11.3839 7.36612L14.25 10.2322L18.3661 6.11612C18.8543 5.62796 19.6457 5.62796 20.1339 6.11612Z" fill="#687782"/>
</svg>
