<svg width="26" height="25" viewBox="0 0 26 25" fill="none" xmlns="http://www.w3.org/2000/svg">
<path fill-rule="evenodd" clip-rule="evenodd" d="M9.69107 2.60174C10.5332 -0.86725 15.4668 -0.867244 16.3089 2.60174C16.4535 3.19737 17.1359 3.48003 17.6594 3.16111C20.7078 1.30366 24.1963 4.7922 22.3389 7.84064C22.02 8.36406 22.3026 9.04647 22.8983 9.19107C26.3672 10.0332 26.3672 14.9668 22.8983 15.8089C22.3026 15.9535 22.02 16.6359 22.3389 17.1594C24.1963 20.2078 20.7078 23.6963 17.6594 21.8389C17.1359 21.52 16.4535 21.8026 16.3089 22.3983C15.4668 25.8672 10.5332 25.8672 9.69107 22.3983C9.54647 21.8026 8.86406 21.52 8.34065 21.8389C5.2922 23.6963 1.80366 20.2078 3.66111 17.1594C3.98003 16.6359 3.69737 15.9535 3.10174 15.8089C-0.367244 14.9668 -0.36725 10.0332 3.10174 9.19107C3.69737 9.04647 3.98003 8.36406 3.66111 7.84064C1.80366 4.7922 5.2922 1.30366 8.34064 3.1611C8.86406 3.48003 9.54647 3.19737 9.69107 2.60174ZM13.8795 3.19153C13.6557 2.26949 12.3443 2.26949 12.1205 3.19153C11.5765 5.43245 9.00908 6.49591 7.03982 5.29602C6.22956 4.80232 5.30232 5.72956 5.79602 6.53982C6.99591 8.50908 5.93245 11.0765 3.69153 11.6205C2.76949 11.8443 2.76949 13.1557 3.69153 13.3795C5.93245 13.9235 6.99591 16.4909 5.79602 18.4602C5.30232 19.2704 6.22956 20.1977 7.03982 19.704C9.00908 18.5041 11.5765 19.5675 12.1205 21.8085C12.3443 22.7305 13.6557 22.7305 13.8795 21.8085C14.4235 19.5675 16.9909 18.5041 18.9602 19.704C19.7704 20.1977 20.6977 19.2704 20.204 18.4602C19.0041 16.4909 20.0675 13.9235 22.3085 13.3795C23.2305 13.1557 23.2305 11.8443 22.3085 11.6205C20.0675 11.0765 19.0041 8.50908 20.204 6.53982C20.6977 5.72956 19.7704 4.80232 18.9602 5.29602C16.9909 6.49591 14.4235 5.43246 13.8795 3.19153ZM13 10C11.6193 10 10.5 11.1193 10.5 12.5C10.5 13.8807 11.6193 15 13 15C14.3807 15 15.5 13.8807 15.5 12.5C15.5 11.1193 14.3807 10 13 10ZM8 12.5C8 9.73858 10.2386 7.5 13 7.5C15.7614 7.5 18 9.73858 18 12.5C18 15.2614 15.7614 17.5 13 17.5C10.2386 17.5 8 15.2614 8 12.5Z" fill="#2843DE"/>
</svg>
