<svg width="10" height="10" viewBox="0 0 10 10" fill="none" xmlns="http://www.w3.org/2000/svg">
<path fill-rule="evenodd" clip-rule="evenodd" d="M1.5 7.5C1.5 8.05228 1.94772 8.5 2.5 8.5L7.5 8.5C8.05228 8.5 8.5 8.05228 8.5 7.5L8.5 7C8.5 6.72386 8.72386 6.5 9 6.5C9.27614 6.5 9.5 6.72386 9.5 7L9.5 7.5C9.5 8.60457 8.60457 9.5 7.5 9.5L2.5 9.5C1.39543 9.5 0.5 8.60457 0.5 7.5L0.5 7C0.5 6.72386 0.723857 6.5 1 6.5C1.27614 6.5 1.5 6.72386 1.5 7L1.5 7.5ZM2.64645 4.64645C2.84171 4.45118 3.15829 4.45118 3.35355 4.64645L4.5 5.79289L4.5 1C4.5 0.723858 4.72386 0.5 5 0.5C5.27614 0.5 5.5 0.723858 5.5 1L5.5 5.79289L6.64645 4.64645C6.84171 4.45118 7.15829 4.45118 7.35355 4.64645C7.54882 4.84171 7.54882 5.15829 7.35355 5.35355L5.35355 7.35355C5.15829 7.54882 4.84171 7.54882 4.64645 7.35355L2.64645 5.35355C2.45118 5.15829 2.45118 4.84171 2.64645 4.64645Z" fill="#5C5C5C"/>
</svg>
