<svg width="20" height="26" viewBox="0 0 20 26" fill="none" xmlns="http://www.w3.org/2000/svg">
<path fill-rule="evenodd" clip-rule="evenodd" d="M3.75 3C3.05964 3 2.5 3.55964 2.5 4.25V21.75C2.5 22.4404 3.05964 23 3.75 23H16.25C16.9404 23 17.5 22.4404 17.5 21.75L17.5 9.76777L10.7322 3H3.75ZM0 4.25C0 2.17893 1.67893 0.5 3.75 0.5H10.7322C11.3953 0.5 12.0312 0.763392 12.5 1.23223L19.2678 8C19.7366 8.46884 20 9.10473 20 9.76777V21.75C20 23.8211 18.3211 25.5 16.25 25.5H3.75C1.67893 25.5 0 23.8211 0 21.75V4.25ZM5 13C5 12.3096 5.55964 11.75 6.25 11.75H13.75C14.4404 11.75 15 12.3096 15 13C15 13.6904 14.4404 14.25 13.75 14.25H6.25C5.55964 14.25 5 13.6904 5 13ZM5 18C5 17.3096 5.55964 16.75 6.25 16.75H13.75C14.4404 16.75 15 17.3096 15 18C15 18.6904 14.4404 19.25 13.75 19.25H6.25C5.55964 19.25 5 18.6904 5 18Z" fill="#687782"/>
</svg>
