<svg width="19" height="14" viewBox="0 0 19 14" fill="none" xmlns="http://www.w3.org/2000/svg">
<path fill-rule="evenodd" clip-rule="evenodd" d="M0.5 1C0.5 0.447715 0.947715 0 1.5 0H17.5C18.0523 0 18.5 0.447715 18.5 1C18.5 1.55228 18.0523 2 17.5 2H1.5C0.947715 2 0.5 1.55228 0.5 1ZM1.5 7C1.5 6.44772 1.94772 6 2.5 6H16.5C17.0523 6 17.5 6.44772 17.5 7C17.5 7.55228 17.0523 8 16.5 8H2.5C1.94772 8 1.5 7.55228 1.5 7ZM2.5 13C2.5 12.4477 2.94772 12 3.5 12H15.5C16.0523 12 16.5 12.4477 16.5 13C16.5 13.5523 16.0523 14 15.5 14H3.5C2.94772 14 2.5 13.5523 2.5 13Z" fill="#5C5C5C"/>
</svg>
