<svg width="24" height="23" viewBox="0 0 24 23" fill="none" xmlns="http://www.w3.org/2000/svg">
<path fill-rule="evenodd" clip-rule="evenodd" d="M0.75 4C0.75 1.92893 2.42893 0.25 4.5 0.25H7C9.07107 0.25 10.75 1.92893 10.75 4V6.5C10.75 8.57107 9.07107 10.25 7 10.25H4.5C2.42893 10.25 0.75 8.57107 0.75 6.5V4ZM4.5 2.75C3.80964 2.75 3.25 3.30964 3.25 4V6.5C3.25 7.19036 3.80964 7.75 4.5 7.75H7C7.69036 7.75 8.25 7.19036 8.25 6.5V4C8.25 3.30964 7.69036 2.75 7 2.75H4.5ZM13.25 4C13.25 1.92893 14.9289 0.25 17 0.25H19.5C21.5711 0.25 23.25 1.92893 23.25 4V6.5C23.25 8.57107 21.5711 10.25 19.5 10.25H17C14.9289 10.25 13.25 8.57107 13.25 6.5V4ZM17 2.75C16.3096 2.75 15.75 3.30964 15.75 4V6.5C15.75 7.19036 16.3096 7.75 17 7.75H19.5C20.1904 7.75 20.75 7.19036 20.75 6.5V4C20.75 3.30964 20.1904 2.75 19.5 2.75H17ZM0.75 16.5C0.75 14.4289 2.42893 12.75 4.5 12.75H7C9.07107 12.75 10.75 14.4289 10.75 16.5V19C10.75 21.0711 9.07107 22.75 7 22.75H4.5C2.42893 22.75 0.75 21.0711 0.75 19V16.5ZM4.5 15.25C3.80964 15.25 3.25 15.8096 3.25 16.5V19C3.25 19.6904 3.80964 20.25 4.5 20.25H7C7.69036 20.25 8.25 19.6904 8.25 19V16.5C8.25 15.8096 7.69036 15.25 7 15.25H4.5ZM13.25 16.5C13.25 14.4289 14.9289 12.75 17 12.75H19.5C21.5711 12.75 23.25 14.4289 23.25 16.5V19C23.25 21.0711 21.5711 22.75 19.5 22.75H17C14.9289 22.75 13.25 21.0711 13.25 19V16.5ZM17 15.25C16.3096 15.25 15.75 15.8096 15.75 16.5V19C15.75 19.6904 16.3096 20.25 17 20.25H19.5C20.1904 20.25 20.75 19.6904 20.75 19V16.5C20.75 15.8096 20.1904 15.25 19.5 15.25H17Z" fill="#626365"/>
</svg>
