<svg width="22" height="25" viewBox="0 0 22 25" fill="none" xmlns="http://www.w3.org/2000/svg">
<path fill-rule="evenodd" clip-rule="evenodd" d="M9.5 0.5C8.93184 0.5 8.41245 0.821004 8.15836 1.32918L7.07295 3.5H2C1.17157 3.5 0.5 4.17157 0.5 5C0.5 5.82843 1.17157 6.5 2 6.5L2 21.5C2 23.1569 3.34315 24.5 5 24.5H17C18.6569 24.5 20 23.1569 20 21.5V6.5C20.8284 6.5 21.5 5.82843 21.5 5C21.5 4.17157 20.8284 3.5 20 3.5H14.9271L13.8416 1.32918C13.5876 0.821004 13.0682 0.5 12.5 0.5H9.5ZM6.5 9.5C6.5 8.67157 7.17157 8 8 8C8.82843 8 9.5 8.67157 9.5 9.5V18.5C9.5 19.3284 8.82843 20 8 20C7.17157 20 6.5 19.3284 6.5 18.5V9.5ZM14 8C13.1716 8 12.5 8.67157 12.5 9.5V18.5C12.5 19.3284 13.1716 20 14 20C14.8284 20 15.5 19.3284 15.5 18.5V9.5C15.5 8.67157 14.8284 8 14 8Z" fill="#687782"/>
</svg>
