<svg width="26" height="26" viewBox="0 0 26 26" fill="none" xmlns="http://www.w3.org/2000/svg">
<path fill-rule="evenodd" clip-rule="evenodd" d="M11.5 4C11.5 1.92893 13.1789 0.25 15.25 0.25C17.3211 0.25 19 1.92893 19 4V5.25H22.75C24.1307 5.25 25.25 6.36929 25.25 7.75V11.5C25.25 12.8807 24.1307 14 22.75 14H21.5C20.8096 14 20.25 14.5596 20.25 15.25C20.25 15.9404 20.8096 16.5 21.5 16.5H22.75C24.1307 16.5 25.25 17.6193 25.25 19V22.75C25.25 24.1307 24.1307 25.25 22.75 25.25H19C17.6193 25.25 16.5 24.1307 16.5 22.75V21.5C16.5 20.8096 15.9404 20.25 15.25 20.25C14.5596 20.25 14 20.8096 14 21.5V22.75C14 24.1307 12.8807 25.25 11.5 25.25H7.75C6.36929 25.25 5.25 24.1307 5.25 22.75V19H4C1.92893 19 0.25 17.3211 0.25 15.25C0.25 13.1789 1.92893 11.5 4 11.5H5.25V7.75C5.25 6.36929 6.36929 5.25 7.75 5.25H11.5V4ZM15.25 2.75C14.5596 2.75 14 3.30964 14 4V5.25C14 6.63071 12.8807 7.75 11.5 7.75L7.75 7.75V11.5C7.75 12.8807 6.63071 14 5.25 14H4C3.30964 14 2.75 14.5596 2.75 15.25C2.75 15.9404 3.30964 16.5 4 16.5H5.25C6.63071 16.5 7.75 17.6193 7.75 19V22.75H11.5V21.5C11.5 19.4289 13.1789 17.75 15.25 17.75C17.3211 17.75 19 19.4289 19 21.5V22.75H22.75V19H21.5C19.4289 19 17.75 17.3211 17.75 15.25C17.75 13.1789 19.4289 11.5 21.5 11.5H22.75V7.75H19C17.6193 7.75 16.5 6.63071 16.5 5.25V4C16.5 3.30964 15.9404 2.75 15.25 2.75Z" fill="#626365"/>
</svg>
