<svg width="10" height="10" viewBox="0 0 10 10" fill="none" xmlns="http://www.w3.org/2000/svg">
<path fill-rule="evenodd" clip-rule="evenodd" d="M4.77639 0.0527864C4.91716 -0.0175955 5.08284 -0.0175955 5.22361 0.0527864L9.22361 2.05279C9.393 2.13748 9.5 2.31061 9.5 2.5V7.5C9.5 7.68939 9.393 7.86252 9.22361 7.94721L5.22361 9.94721C5.08284 10.0176 4.91716 10.0176 4.77639 9.94721L0.776393 7.94721C0.607001 7.86252 0.5 7.68939 0.5 7.5V2.5C0.5 2.31061 0.607001 2.13748 0.776393 2.05279L4.77639 0.0527864ZM1.5 3.30902L4.5 4.80902V8.69098L1.5 7.19098V3.30902ZM5.5 8.69098L8.5 7.19098V3.30902L5.5 4.80902V8.69098ZM5 3.94098L7.88197 2.5L5 1.05902L2.11803 2.5L5 3.94098Z" fill="#5C5C5C"/>
</svg>
