<svg width="8" height="8" viewBox="0 0 8 8" fill="none" xmlns="http://www.w3.org/2000/svg">
<path d="M3.52446 0.963533C3.67414 0.502878 4.32584 0.502878 4.47552 0.963534L5.0103 2.60943C5.07724 2.81544 5.26922 2.95492 5.48583 2.95492H7.21643C7.70079 2.95492 7.90218 3.57473 7.51032 3.85943L6.11024 4.87665C5.935 5.00398 5.86167 5.22966 5.92861 5.43567L6.46339 7.08157C6.61307 7.54222 6.08583 7.92529 5.69397 7.64059L4.29388 6.62336C4.11864 6.49604 3.88134 6.49604 3.7061 6.62336L2.30601 7.64059C1.91416 7.92529 1.38692 7.54222 1.53659 7.08157L2.07138 5.43567C2.13832 5.22966 2.06499 5.00398 1.88974 4.87665L0.489658 3.85943C0.0978017 3.57473 0.29919 2.95492 0.783551 2.95492H2.51415C2.73076 2.95492 2.92274 2.81544 2.98968 2.60943L3.52446 0.963533Z" fill="#687782"/>
</svg>
