<svg width="10" height="9" viewBox="0 0 10 9" fill="none" xmlns="http://www.w3.org/2000/svg">
<path fill-rule="evenodd" clip-rule="evenodd" d="M4.20747 1.09065C4.45695 0.322931 5.54307 0.322934 5.79255 1.09065L6.4254 3.03811L8.47311 3.03819C9.28035 3.03822 9.61597 4.07118 8.96292 4.54569L7.30634 5.74936L7.93904 7.69687C8.18846 8.46461 7.30977 9.10301 6.65669 8.62855L5.00001 7.425L3.34333 8.62855C2.69025 9.10301 1.81156 8.46461 2.06098 7.69687L2.69369 5.74936L1.0371 4.54569C0.384049 4.07118 0.719679 3.03822 1.52692 3.03819L3.57462 3.03811L4.20747 1.09065ZM5.00001 1.3482L4.36716 3.29566C4.25559 3.63898 3.93565 3.87143 3.57465 3.87145L1.52695 3.87152L3.18353 5.0752C3.47558 5.2874 3.59778 5.66351 3.48624 6.00685L2.85354 7.95436L4.51022 6.75081C4.80228 6.53863 5.19774 6.53863 5.48981 6.75081L7.14648 7.95436L6.51378 6.00685C6.40224 5.66351 6.52444 5.2874 6.81649 5.0752L8.47308 3.87152L6.42537 3.87145C6.06437 3.87143 5.74443 3.63898 5.63286 3.29566L5.00001 1.3482Z" fill="#687782"/>
</svg>
