<svg width="26" height="26" viewBox="0 0 26 26" fill="none" xmlns="http://www.w3.org/2000/svg">
<path fill-rule="evenodd" clip-rule="evenodd" d="M4.25 0.5C4.94036 0.5 5.5 1.05964 5.5 1.75V3H6.75C7.44036 3 8 3.55964 8 4.25C8 4.94036 7.44036 5.5 6.75 5.5H5.5V6.75C5.5 7.44036 4.94036 8 4.25 8C3.55964 8 3 7.44036 3 6.75V5.5H1.75C1.05964 5.5 0.5 4.94036 0.5 4.25C0.5 3.55964 1.05964 3 1.75 3H3V1.75C3 1.05964 3.55964 0.5 4.25 0.5ZM14.25 0.5C14.788 0.5 15.2657 0.844288 15.4359 1.35472L18.1044 9.36041L24.6889 11.8296C25.1768 12.0125 25.5 12.4789 25.5 13C25.5 13.5211 25.1768 13.9875 24.6889 14.1704L18.1044 16.6396L15.4359 24.6453C15.2657 25.1557 14.788 25.5 14.25 25.5C13.712 25.5 13.2343 25.1557 13.0641 24.6453L10.3956 16.6396L3.8111 14.1704C3.32322 13.9875 3 13.5211 3 13C3 12.4789 3.32322 12.0125 3.8111 11.8296L10.3956 9.36041L13.0641 1.35472C13.2343 0.844288 13.712 0.5 14.25 0.5ZM14.25 5.70285L12.5787 10.7167C12.4594 11.0746 12.1849 11.3594 11.8318 11.4918L7.81 13L11.8318 14.5082C12.1849 14.6406 12.4594 14.9254 12.5787 15.2833L14.25 20.2972L15.9213 15.2833C16.0406 14.9254 16.3151 14.6406 16.6682 14.5082L20.69 13L16.6682 11.4918C16.3151 11.3594 16.0406 11.0746 15.9213 10.7167L14.25 5.70285ZM5.5 18C6.19036 18 6.75 18.5596 6.75 19.25V20.5H8C8.69036 20.5 9.25 21.0596 9.25 21.75C9.25 22.4404 8.69036 23 8 23H6.75V24.25C6.75 24.9404 6.19036 25.5 5.5 25.5C4.80964 25.5 4.25 24.9404 4.25 24.25V23H3C2.30964 23 1.75 22.4404 1.75 21.75C1.75 21.0596 2.30964 20.5 3 20.5H4.25V19.25C4.25 18.5596 4.80964 18 5.5 18Z" fill="#687782"/>
</svg>
