<svg width="12" height="11" viewBox="0 0 12 11" fill="none" xmlns="http://www.w3.org/2000/svg">
<path fill-rule="evenodd" clip-rule="evenodd" d="M5.04896 1.30881C5.34834 0.387542 6.65168 0.387545 6.95105 1.30881L7.71047 3.64576L10.1677 3.64585C11.1364 3.64589 11.5392 4.88544 10.7555 5.45485L8.7676 6.89926L9.52684 9.23627C9.82615 10.1576 8.77172 10.9236 7.98802 10.3543L6.00001 8.91003L4.012 10.3543C3.22829 10.9236 2.17387 10.1576 2.47317 9.23627L3.23242 6.89926L1.24451 5.45485C0.460853 4.88544 0.863609 3.64589 1.83229 3.64585L4.28954 3.64576L5.04896 1.30881ZM6.00001 1.61786L5.24059 3.95481C5.10671 4.3668 4.72278 4.64574 4.28958 4.64576L1.83233 4.64585L3.82023 6.09026C4.17069 6.3449 4.31733 6.79624 4.18348 7.20824L3.42424 9.54525L5.41225 8.10099C5.76273 7.84638 6.23729 7.84638 6.58776 8.10099L8.57577 9.54525L7.81653 7.20824C7.68268 6.79624 7.82933 6.3449 8.17978 6.09026L10.1677 4.64585L7.71043 4.64576C7.27724 4.64574 6.89331 4.3668 6.75943 3.95481L6.00001 1.61786Z" fill="#5C5C5C"/>
</svg>
